<svg width="30" height="30" viewBox="0 0 30 30" fill="none" xmlns="http://www.w3.org/2000/svg">
<path d="M21.2784 2.8125H8.72156C5.45808 2.8125 2.8125 5.45808 2.8125 8.72156V21.2784C2.8125 24.5419 5.45808 27.1875 8.72156 27.1875H21.2784C24.5419 27.1875 27.1875 24.5419 27.1875 21.2784V8.72156C27.1875 5.45808 24.5419 2.8125 21.2784 2.8125Z" stroke="#DDDDDD" stroke-width="2" stroke-linecap="round" stroke-linejoin="round"/>
<path d="M15 21.5625C18.6244 21.5625 21.5625 18.6244 21.5625 15C21.5625 11.3756 18.6244 8.4375 15 8.4375C11.3756 8.4375 8.4375 11.3756 8.4375 15C8.4375 18.6244 11.3756 21.5625 15 21.5625Z" stroke="#DDDDDD" stroke-width="2" stroke-linecap="round" stroke-linejoin="round"/>
<path d="M22.0312 8.4375C22.8079 8.4375 23.4375 7.8079 23.4375 7.03125C23.4375 6.2546 22.8079 5.625 22.0312 5.625C21.2546 5.625 20.625 6.2546 20.625 7.03125C20.625 7.8079 21.2546 8.4375 22.0312 8.4375Z" fill="#DDDDDD"/>
</svg>
